<?xml version="1.0" encoding="utf-8"?>
<?xml-stylesheet type="text/xsl" href="rss1.xsl"?>
<rss version="2.0" xmlns:atom="http://www.w3.org/2005/Atom" xmlns:content="http://purl.org/rss/1.0/modules/content/" xmlns:dc="http://purl.org/dc/elements/1.1/" xmlns:media="http://search.yahoo.com/mrss/">
<channel>
 <title>Getty</title>
 <link>http://www.gettyimg.com/</link>
 <atom:link href="http://www.gettyimg.com/" rel="self" type="application/rss+xml" />

 
                <item>
                <title><![CDATA[【HD Live Performances】FEED - Global Citizen - Power Our Planet FEED HDTV 1080i MP2-ilya2129]]></title>
                <link><![CDATA[https://sharemania.us/threads/global-citizen-power-our-planet-feed-hdtv-1080i-mp2-ilya2129.223203/]]></link>
                <description><![CDATA[<article>
<blockquote class="messageText SelectQuoteContainer ugc baseHtml">
<div style="text-align: center"><img src="https://i122.fastpic.org/big/2023/0623/8c/51461278f768c8aa95c5a6d0c3bcb08c.png?r=1" class="bbCodeImage LbImage" alt="[​IMG]" data-url="https://i122.fastpic.org/big/2023/0623/8c/51461278f768c8aa95c5a6d0c3bcb08c.png?r=1" style=""><br>
<br>
<a href="https://postimg.cc/NLSjTTQ2" target="_blank" class="externalLink" rel="nofollow"><img src="https://i.postimg.cc/NLSjTTQ2/vlcsnap-2023-06-23-12h12m29s164.png" class="bbCodeImage LbImage" alt="[​IMG]" data-url="https://i.postimg.cc/NLSjTTQ2/vlcsnap-2023-06-23-12h12m29s164.png"></a> <a href="https://postimg.cc/YGQb3YJ2" target="_blank" class="externalLink" rel="nofollow"><img src="https://i.postimg.cc/YGQb3YJ2/vlcsnap-2023-06-23-12h12m31s284.png" class="bbCodeImage LbImage" alt="[​IMG]" data-url="https://i.postimg.cc/YGQb3YJ2/vlcsnap-2023-06-23-12h12m31s284.png"></a> <a href="https://postimg.cc/SJktg1SB" target="_blank" class="externalLink" rel="nofollow"><img src="https://i.postimg.cc/SJktg1SB/vlcsnap-2023-06-23-12h12m32s931.png" class="bbCodeImage LbImage" alt="[​IMG]" data-url="https://i.postimg.cc/SJktg1SB/vlcsnap-2023-06-23-12h12m32s931.png"></a> <a href="https://postimg.cc/18YC59GS" target="_blank" class="externalLink" rel="nofollow"><img src="https://i.postimg.cc/18YC59GS/vlcsnap-2023-06-23-12h12m35s077.png" class="bbCodeImage LbImage" alt="[​IMG]" data-url="https://i.postimg.cc/18YC59GS/vlcsnap-2023-06-23-12h12m35s077.png"></a> <a href="https://postimg.cc/7CGB5p92" target="_blank" class="externalLink" rel="nofollow"><img src="https://i.postimg.cc/7CGB5p92/vlcsnap-2023-06-23-12h12m37s323.png" class="bbCodeImage LbImage" alt="[​IMG]" data-url="https://i.postimg.cc/7CGB5p92/vlcsnap-2023-06-23-12h12m37s323.png"></a> <a href="https://postimg.cc/Z9GwpVsD" target="_blank" class="externalLink" rel="nofollow"><img src="https://i.postimg.cc/Z9GwpVsD/vlcsnap-2023-06-23-12h12m39s117.png" class="bbCodeImage LbImage" alt="[​IMG]" data-url="https://i.postimg.cc/Z9GwpVsD/vlcsnap-2023-06-23-12h12m39s117.png"></a> <a href="https://postimg.cc/fkxrjQN7" target="_blank" class="externalLink" rel="nofollow"><img src="https://i.postimg.cc/fkxrjQN7/vlcsnap-2023-06-23-12h12m41s345.png" class="bbCodeImage LbImage" alt="[​IMG]" data-url="https://i.postimg.cc/fkxrjQN7/vlcsnap-2023-06-23-12h12m41s345.png"></a> <br>
<br>
​</div><br>
<div class="bbCodeBlock bbCodeCode">
<div class="type">Code:</div>
<pre>General
ID                                       : 1 (0x1)
Complete name                            : D:\Global Citizen - Power Our Planet FEED HDTV 1080i MP2-ilya2129.ts
Format                                   : MPEG-TS
File size                                : 26.1 GiB
Duration                                 : 4 h 3 min
Overall bit rate mode                    : Variable
Overall bit rate                         : 15.4 Mb/s
Frame rate                               : 25.000 FPS

Video
ID                                       : 512 (0x200)
Menu ID                                  : 1 (0x1)
Format                                   : AVC
Format/Info                              : Advanced Video Codec
Format profile                           : High@L4
Format settings                          : CABAC / 3 Ref Frames
Format settings, CABAC                   : Yes
Format settings, Reference frames        : 3 frames
Codec ID                                 : 27
Duration                                 : 4 h 3 min
Bit rate mode                            : Constant
Bit rate                                 : 13.4 Mb/s
Width                                    : 1 920 pixels
Height                                   : 1 080 pixels
Display aspect ratio                     : 16:9
Frame rate                               : 25.000 FPS
Color space                              : YUV
Chroma subsampling                       : 4:2:0
Bit depth                                : 8 bits
Scan type                                : MBAFF
Scan type, store method                  : Interleaved fields
Scan order                               : Top Field First
Bits/(Pixel*Frame)                       : 0.259
Stream size                              : 22.4 GiB (86%)
Color range                              : Limited
Color primaries                          : BT.709
Transfer characteristics                 : BT.709
Matrix coefficients                      : BT.709

Audio #1
ID                                       : 4112 (0x1010)
Menu ID                                  : 1 (0x1)
Format                                   : MPEG Audio
Format version                           : Version 1
Format profile                           : Layer 2
Codec ID                                 : 3
Duration                                 : 4 h 3 min
Bit rate mode                            : Constant
Bit rate                                 : 384 kb/s
Channel(s)                               : 2 channels
Sampling rate                            : 48.0 kHz
Frame rate                               : 41.667 FPS (1152 SPF)
Compression mode                         : Lossy
Stream size                              : 668 MiB (2%)
Language                                 : English

Audio #2
ID                                       : 4128 (0x1020)
Menu ID                                  : 1 (0x1)
Format                                   : MPEG Audio
Format version                           : Version 1
Format profile                           : Layer 2
Codec ID                                 : 3
Duration                                 : 4 h 3 min
Bit rate mode                            : Constant
Bit rate                                 : 384 kb/s
Channel(s)                               : 2 channels
Sampling rate                            : 48.0 kHz
Frame rate                               : 41.667 FPS (1152 SPF)
Compression mode                         : Lossy
Stream size                              : 668 MiB (2%)
Language                                 : French

Audio #3
ID                                       : 4144 (0x1030)
Menu ID                                  : 1 (0x1)
Format                                   : MPEG Audio
Format version                           : Version 1
Format profile                           : Layer 2
Codec ID                                 : 3
Duration                                 : 4 h 3 min
Bit rate mode                            : Constant
Bit rate                                 : 384 kb/s
Channel(s)                               : 2 channels
Sampling rate                            : 48.0 kHz
Frame rate                               : 41.667 FPS (1152 SPF)
Compression mode                         : Lossy
Stream size                              : 668 MiB (2%)
Language                                 : English

Audio #4
ID                                       : 4160 (0x1040)
Menu ID                                  : 1 (0x1)
Format                                   : MPEG Audio
Format version                           : Version 1
Format profile                           : Layer 2
Codec ID                                 : 3
Duration                                 : 4 h 3 min
Bit rate mode                            : Constant
Bit rate                                 : 256 kb/s
Channel(s)                               : 2 channels
Sampling rate                            : 48.0 kHz
Frame rate                               : 41.667 FPS (1152 SPF)
Compression mode                         : Lossy
Stream size                              : 445 MiB (2%)
Language                                 : English

</pre>
</div>
<div class="bbCodeBlock bbCodeVfcHH HiddenContent">
<div class="attribution type">Hidden Content:</div>
<blockquote>You must reply before you can see the hidden data contained here.</blockquote>
</div>
<div class="messageTextEndMarker">&nbsp;</div>
</blockquote>
</article>]]></description>
                <author><![CDATA[ilya2129]]></author>
                </item>

                </channel></rss>